<mxfile host="app.diagrams.net" modified="2023-08-20T18:14:43.748Z" agent="Mozilla/5.0 (Windows NT 10.0; Win64; x64) AppleWebKit/537.36 (KHTML, like Gecko) Chrome/115.0.0.0 Safari/537.36 Edg/115.0.1901.203" version="21.6.8" etag="VM0t5awJFMgBHBs1S1aO" type="github">
  <diagram name="PÃ¡gina-1" id="Qzn0qPf9PI4gwN_pM8Xa">
    <mxGraphModel>
      <root>
        <mxCell id="0" />
        <mxCell id="1" parent="0" />
      </root>
    </mxGraphModel>
  </diagram>
</mxfile>
